<svg xmlns="http://www.w3.org/2000/svg" viewBox="0 0 61.202 61.202">
  <defs>
    <style>
      .cls-1 {
        fill: #0e2459;
        opacity: 0.05;
      }

      .cls-2 {
        fill: #0080ff;
      }
    </style>
  </defs>
  <g id="Group_950" data-name="Group 950" transform="translate(-116 -2275)">
    <circle id="Ellipse_69" data-name="Ellipse 69" class="cls-1" cx="30.601" cy="30.601" r="30.601" transform="translate(116 2275)"/>
    <g id="black-back-closed-envelope-shape" transform="translate(133.616 2295)">
      <g id="Group_937" data-name="Group 937" transform="translate(0 0)">
        <path id="Path_403" data-name="Path 403" class="cls-2" d="M39.951,331.511a2.234,2.234,0,0,0,1.53-.577l-7.407-7.407-.513.369q-.831.613-1.35.955a8.318,8.318,0,0,1-1.379.7,4.2,4.2,0,0,1-1.6.357H29.2a4.2,4.2,0,0,1-1.6-.357,8.291,8.291,0,0,1-1.379-.7q-.518-.343-1.35-.955c-.155-.113-.326-.238-.511-.371l-7.408,7.409a2.235,2.235,0,0,0,1.53.577Z" transform="translate(-16.142 -310.97)"/>
        <path id="Path_404" data-name="Path 404" class="cls-2" d="M1.474,199.824A7.735,7.735,0,0,1,0,198.555v11.27L6.529,203.3Q4.569,201.928,1.474,199.824Z" transform="translate(0 -191.931)"/>
        <path id="Path_405" data-name="Path 405" class="cls-2" d="M418.376,199.824q-2.981,2.018-5.067,3.474l6.526,6.526v-11.27A8.053,8.053,0,0,1,418.376,199.824Z" transform="translate(-393.691 -191.931)"/>
        <path id="Path_406" data-name="Path 406" class="cls-2" d="M23.815,59.013H2.34a2.083,2.083,0,0,0-1.729.758,2.944,2.944,0,0,0-.605,1.9,3.409,3.409,0,0,0,.8,1.992,7.238,7.238,0,0,0,1.707,1.685q.5.35,2.991,2.079c.9.622,1.679,1.165,2.35,1.633.572.4,1.065.744,1.472,1.03l.218.155.4.29q.474.343.788.555t.759.474a4.426,4.426,0,0,0,.839.394,2.321,2.321,0,0,0,.729.131h.029a2.322,2.322,0,0,0,.729-.131,4.415,4.415,0,0,0,.839-.394q.445-.263.759-.474t.788-.555l.4-.29.218-.155L18.3,69.06l5.351-3.716a6.939,6.939,0,0,0,1.78-1.794,3.86,3.86,0,0,0,.714-2.2,2.353,2.353,0,0,0-2.334-2.334Z" transform="translate(-0.006 -59.013)"/>
      </g>
    </g>
  </g>
</svg>
