<svg xmlns="http://www.w3.org/2000/svg" viewBox="0 0 69 69">
  <defs>
    <style>
      .cls-1, .cls-2 {
        fill: #fff;
      }

      .cls-2 {
        stroke: #0080ff;
      }

      .cls-3 {
        fill: #12054c;
      }

      .cls-4 {
        stroke: none;
      }

      .cls-5 {
        fill: none;
      }
    </style>
  </defs>
  <g id="Group_907" data-name="Group 907" transform="translate(-262 -1064)">
    <circle id="Ellipse_56" data-name="Ellipse 56" class="cls-1" cx="34.5" cy="34.5" r="34.5" transform="translate(262 1064)"/>
    <g id="Ellipse_57" data-name="Ellipse 57" class="cls-2" transform="translate(265.833 1067.833)">
      <circle class="cls-4" cx="30.667" cy="30.667" r="30.667"/>
      <circle class="cls-5" cx="30.667" cy="30.667" r="30.167"/>
    </g>
    <g id="left-arrow_3_" data-name="left-arrow (3)" transform="translate(302.276 1108.083) rotate(180)">
      <g id="Group_906" data-name="Group 906" transform="translate(0 0)">
        <path id="Path_380" data-name="Path 380" class="cls-3" d="M3.9,9.872l7.383-7.384a1.082,1.082,0,0,0,0-1.527L10.632.315a1.081,1.081,0,0,0-1.527,0L.315,9.106a1.09,1.09,0,0,0,0,1.532L9.1,19.421a1.082,1.082,0,0,0,1.527,0l.647-.647a1.081,1.081,0,0,0,0-1.527Z"/>
      </g>
    </g>
  </g>
</svg>
