<svg xmlns="http://www.w3.org/2000/svg" viewBox="0 0 69.998 69.998">
  <defs>
    <style>
      .cls-1 {
        fill: #937cf9;
      }

      .cls-2 {
        fill: #7158e2;
        opacity: 0.05;
      }
    </style>
  </defs>
  <g id="Group_916" data-name="Group 916" transform="translate(499.135 -5570)">
    <g id="_003-male-cartoon-pointing-to-white-board" data-name="003-male-cartoon-pointing-to-white-board" transform="translate(-481.021 5587.474)">
      <path id="Path_386" data-name="Path 386" class="cls-1" d="M1.363,10.288A4.618,4.618,0,1,1,5.987,14.9,4.619,4.619,0,0,1,1.363,10.288Zm20.445,4.32a1.569,1.569,0,0,0-2.152.524l-3.081,5.053L12.23,17.759a8.836,8.836,0,0,0-5.806-1.774H5.541c-5.627.658-4.65,5.164-4.65,5.164l.682,13.9,9.9-.11-.39-13.792,5.28,2.506a1.539,1.539,0,0,0,.762.2,1.567,1.567,0,0,0,1.341-.751l3.866-6.341A1.568,1.568,0,0,0,21.808,14.609ZM9.3,14.13a5.242,5.242,0,0,1-1.126.744V15.6a7.693,7.693,0,0,1,1.126.209ZM35.148,0H8.174V5.7A5.179,5.179,0,0,1,9.3,6.446V1.124H34.028V18.039H22.119l-.685,1.125H35.148ZM16.636,19.163l.689-1.125h-3.6l2.011,1.125Zm9.528-11.4-.543-.312-3.774,6.583.545.314Z" transform="translate(-0.826)"/>
    </g>
    <circle id="Ellipse_63" data-name="Ellipse 63" class="cls-2" cx="34.999" cy="34.999" r="34.999" transform="translate(-499.135 5570)"/>
  </g>
</svg>
