<svg xmlns="http://www.w3.org/2000/svg" viewBox="0 0 69.998 69.998">
  <defs>
    <style>
      .cls-1, .cls-2 {
        fill: #0080ff;
      }

      .cls-2 {
        opacity: 0.05;
      }
    </style>
  </defs>
  <g id="Group_917" data-name="Group 917" transform="translate(637 -5440)">
    <g id="_004-manager" data-name="004-manager" transform="translate(-618.766 5452.916)">
      <path id="Path_387" data-name="Path 387" class="cls-1" d="M98.564,17.324A8.662,8.662,0,1,0,89.9,8.662,8.672,8.672,0,0,0,98.564,17.324Z" transform="translate(-81.687)"/>
      <path id="Path_388" data-name="Path 388" class="cls-1" d="M62.821,141.019l-.014,0c-1.128-.275-4.582-.759-4.582-.759a.768.768,0,0,0-.947.471l-5.2,14.264a.939.939,0,0,1-1.764,0l-5.2-14.264a.768.768,0,0,0-.721-.505c-.074,0-3.626.5-4.808.792A7.365,7.365,0,0,0,34.32,148.3v11.869a3.221,3.221,0,0,0,3.221,3.221H64.851a3.221,3.221,0,0,0,3.221-3.221V148.264A7.621,7.621,0,0,0,62.821,141.019Z" transform="translate(-34.32 -119.496)"/>
      <path id="Path_389" data-name="Path 389" class="cls-1" d="M137.525,136.654a1.1,1.1,0,0,0-.818-.34h-2.289a1.1,1.1,0,0,0-.818.34,1.062,1.062,0,0,0-.14,1.251l1.223,1.844-.573,4.832,1.128,3a.344.344,0,0,0,.647,0l1.128-3-.573-4.832,1.223-1.844A1.062,1.062,0,0,0,137.525,136.654Z" transform="translate(-118.687 -116.167)"/>
    </g>
    <circle id="Ellipse_64" data-name="Ellipse 64" class="cls-2" cx="34.999" cy="34.999" r="34.999" transform="translate(-637 5440)"/>
  </g>
</svg>
