<svg xmlns="http://www.w3.org/2000/svg" viewBox="0 0 69.999 69.999">
  <defs>
    <style>
      .cls-1, .cls-2 {
        fill: #12054c;
      }

      .cls-1 {
        opacity: 0.05;
      }
    </style>
  </defs>
  <g id="Group_918" data-name="Group 918" transform="translate(-363 -926)">
    <circle id="Ellipse_62" data-name="Ellipse 62" class="cls-1" cx="34.999" cy="34.999" r="34.999" transform="translate(363 926)"/>
    <g id="_002-support-1" data-name="002-support-1" transform="translate(382.753 943.474)">
      <g id="Group_915" data-name="Group 915" transform="translate(0)">
        <g id="Group_914" data-name="Group 914">
          <path id="Path_383" data-name="Path 383" class="cls-2" d="M54.014,300.4H46.543A11.161,11.161,0,0,0,35.4,311.543H65.189A11.231,11.231,0,0,0,54.014,300.4Z" transform="translate(-35.4 -276.003)"/>
          <path id="Path_384" data-name="Path 384" class="cls-2" d="M132.464,96.107a2.4,2.4,0,0,1,1.559.552h2.7A7.727,7.727,0,1,0,123.4,91.332a7.747,7.747,0,0,0,3.963,6.757,2.531,2.531,0,0,1,2.436-1.982Z" transform="translate(-116.253 -76.81)"/>
          <path id="Path_385" data-name="Path 385" class="cls-2" d="M75.227,15.171a3.629,3.629,0,0,0,1.04,2.112,3.92,3.92,0,0,0,1.592.942,1.456,1.456,0,0,1-.032-.357v-6.3a1.581,1.581,0,0,1,.032-.39,3.474,3.474,0,0,0-1.592.942l-.13.13v-.26a11.142,11.142,0,0,1,.162-1.819,7.775,7.775,0,0,1,.487-1.754,7.722,7.722,0,0,1,.78-1.657,9.455,9.455,0,0,1,1.04-1.494.246.246,0,0,0,.065-.13.959.959,0,0,0,.78-.26,10.117,10.117,0,0,1,14.294,0,.923.923,0,0,0,.78.26c.033.032.033.1.065.13a9.455,9.455,0,0,1,1.04,1.494,12.941,12.941,0,0,1,.78,1.657A16.063,16.063,0,0,1,96.9,10.2a11.142,11.142,0,0,1,.162,1.819v.26c-.032-.065-.1-.1-.13-.13a3.92,3.92,0,0,0-1.592-.942,1.582,1.582,0,0,1,.032.39v6.27a1.218,1.218,0,0,1-.032.357,2.858,2.858,0,0,0,.487-.162v2.047a3.273,3.273,0,0,1-.065.617.913.913,0,0,1-.162.357.707.707,0,0,1-.26.162,1.646,1.646,0,0,1-.422.065H88.9a1.079,1.079,0,0,0-.942-.552H85.3a1.047,1.047,0,0,0-1.04,1.04,1.075,1.075,0,0,0,1.072,1.04h2.664a1.12,1.12,0,0,0,.942-.552h6.27a1.9,1.9,0,0,0,.617-.13,1.731,1.731,0,0,0,.65-.422,2.144,2.144,0,0,0,.39-.715,3.877,3.877,0,0,0,.13-.942v-2.7l.1-.1a3.629,3.629,0,0,0,1.04-2.112c.032-.032.065-.032.065-.065a.6.6,0,0,0,.162-.39v-2.7a13.661,13.661,0,0,0-.162-2.014c-.195-.682-.357-1.332-.585-1.982a9.662,9.662,0,0,0-.877-1.852,9.571,9.571,0,0,0-1.169-1.657.324.324,0,0,0-.162-.13.989.989,0,0,0-.26-.877A11.926,11.926,0,0,0,86.662,0a12.055,12.055,0,0,0-8.511,3.508.989.989,0,0,0-.26.877.57.57,0,0,0-.162.13,9.571,9.571,0,0,0-1.169,1.657,16.186,16.186,0,0,0-.877,1.852,10.47,10.47,0,0,0-.52,1.982A10.324,10.324,0,0,0,75,12.02v2.7a.538.538,0,0,0,.162.39C75.195,15.138,75.227,15.138,75.227,15.171Z" transform="translate(-71.784 0)"/>
        </g>
      </g>
    </g>
  </g>
</svg>
