<svg xmlns="http://www.w3.org/2000/svg" viewBox="0 0 70 70">
  <defs>
    <style>
      .cls-1, .cls-2 {
        fill: #0080ff;
      }

      .cls-2 {
        opacity: 0.05;
      }
    </style>
  </defs>
  <g id="Group_919" data-name="Group 919" transform="translate(-40.002 -929)">
    <g id="_001-support" data-name="001-support" transform="translate(52.429 945.656)">
      <g id="Group_913" data-name="Group 913" transform="translate(0 0)">
        <g id="Group_912" data-name="Group 912">
          <path id="Path_381" data-name="Path 381" class="cls-1" d="M106.83,41.206H75.767a3.367,3.367,0,0,0-3.355,3.355v19.3a3.367,3.367,0,0,0,3.355,3.355H97.18l4.846,4.887a1.037,1.037,0,0,0,.746.331,1.069,1.069,0,0,0,1.077-1.077V67.216h2.982a3.367,3.367,0,0,0,3.355-3.355v-19.3A3.367,3.367,0,0,0,106.83,41.206ZM80.53,57.815a3.106,3.106,0,1,1,3.106-3.106A3.129,3.129,0,0,1,80.53,57.815Zm10.893,0a3.106,3.106,0,1,1,3.106-3.106A3.129,3.129,0,0,1,91.423,57.815Zm10.851,0a3.106,3.106,0,1,1,3.106-3.106A3.129,3.129,0,0,1,102.274,57.815Z" transform="translate(-64.914 -41.206)"/>
          <path id="Path_382" data-name="Path 382" class="cls-1" d="M5.593,203.791v-6.585H2.2A2.21,2.21,0,0,0,0,199.4v12.674a2.178,2.178,0,0,0,2.2,2.278H4.143v2.734a.726.726,0,0,0,.7.7.686.686,0,0,0,.5-.207l3.189-3.189H22.615a2.21,2.21,0,0,0,2.2-2.2v-3.148H10.853A5.268,5.268,0,0,1,5.593,203.791Z" transform="translate(0 -181.053)"/>
        </g>
      </g>
    </g>
    <circle id="Ellipse_61" data-name="Ellipse 61" class="cls-2" cx="35" cy="35" r="35" transform="translate(40.002 929)"/>
  </g>
</svg>
