<svg xmlns="http://www.w3.org/2000/svg" viewBox="0 0 61 61">
  <defs>
    <style>
      .cls-1 {
        fill: #0e2459;
        opacity: 0.05;
      }

      .cls-2 {
        fill: #0080ff;
      }
    </style>
  </defs>
  <g id="Group_938" data-name="Group 938" transform="translate(-754 -345)">
    <circle id="Ellipse_70" data-name="Ellipse 70" class="cls-1" cx="30.5" cy="30.5" r="30.5" transform="translate(754 345)"/>
    <g id="_001-coin" data-name="001-coin" transform="translate(768 361)">
      <g id="Group_929" data-name="Group 929">
        <path id="Path_391" data-name="Path 391" class="cls-2" d="M9.431,121.491a20.216,20.216,0,0,0,2.628-.169v-9.145a20.228,20.228,0,0,0-2.628-.169c-5.208,0-9.43,1.915-9.43,4.277v.928C0,119.576,4.223,121.491,9.431,121.491Z" transform="translate(-0.001 -104.765)"/>
        <path id="Path_392" data-name="Path 392" class="cls-2" d="M9.431,219.255a20.242,20.242,0,0,0,2.628-.168v-2.68a20.227,20.227,0,0,1-2.628.169c-4.546,0-8.34-1.459-9.232-3.4a2.086,2.086,0,0,0-.2.876v.928C0,217.34,4.223,219.255,9.431,219.255Z" transform="translate(-0.001 -197.754)"/>
        <path id="Path_393" data-name="Path 393" class="cls-2" d="M12.058,275.7v-.208a20.227,20.227,0,0,1-2.628.169c-4.546,0-8.34-1.459-9.232-3.4a2.085,2.085,0,0,0-.2.876v.928c0,2.362,4.222,4.277,9.43,4.277a20.028,20.028,0,0,0,2.98-.218,3.374,3.374,0,0,1-.352-1.495Z" transform="translate(0 -252.063)"/>
        <path id="Path_394" data-name="Path 394" class="cls-2" d="M177.669,22.379c-5.208,0-9.43,1.915-9.43,4.277v.928c0,2.362,4.222,4.277,9.43,4.277s9.43-1.915,9.43-4.277v-.928C187.1,24.294,182.877,22.379,177.669,22.379Z" transform="translate(-154.642 -22.379)"/>
        <path id="Path_395" data-name="Path 395" class="cls-2" d="M177.669,126.945c-4.546,0-8.341-1.459-9.232-3.4a2.085,2.085,0,0,0-.2.876v.928c0,2.362,4.222,4.277,9.43,4.277s9.43-1.915,9.43-4.277v-.928a2.085,2.085,0,0,0-.2-.876C186.01,125.486,182.215,126.945,177.669,126.945Z" transform="translate(-154.642 -115.368)"/>
        <path id="Path_396" data-name="Path 396" class="cls-2" d="M177.669,186.029c-4.546,0-8.341-1.459-9.232-3.4a2.085,2.085,0,0,0-.2.876v.928c0,2.362,4.222,4.277,9.43,4.277s9.43-1.915,9.43-4.277V183.5a2.085,2.085,0,0,0-.2-.876C186.01,184.57,182.215,186.029,177.669,186.029Z" transform="translate(-154.642 -169.677)"/>
        <path id="Path_397" data-name="Path 397" class="cls-2" d="M177.669,248.3c-4.546,0-8.341-1.459-9.232-3.4a2.086,2.086,0,0,0-.2.876v.928c0,2.362,4.222,4.277,9.43,4.277s9.43-1.915,9.43-4.277v-.928a2.085,2.085,0,0,0-.2-.876C186.01,246.843,182.215,248.3,177.669,248.3Z" transform="translate(-154.642 -226.917)"/>
        <path id="Path_398" data-name="Path 398" class="cls-2" d="M177.669,307.385c-4.546,0-8.341-1.459-9.232-3.4a2.086,2.086,0,0,0-.2.876v.928c0,2.362,4.222,4.277,9.43,4.277s9.43-1.915,9.43-4.277v-.928a2.085,2.085,0,0,0-.2-.876C186.01,305.926,182.215,307.385,177.669,307.385Z" transform="translate(-154.642 -281.225)"/>
      </g>
    </g>
  </g>
</svg>
