<svg xmlns="http://www.w3.org/2000/svg" viewBox="0 0 61 61">
  <defs>
    <style>
      .cls-1 {
        fill: #0e2459;
        opacity: 0.05;
      }

      .cls-2 {
        fill: #0080ff;
      }
    </style>
  </defs>
  <g id="Group_947" data-name="Group 947" transform="translate(-610 -661)">
    <circle id="Ellipse_70" data-name="Ellipse 70" class="cls-1" cx="30.5" cy="30.5" r="30.5" transform="translate(610 661)"/>
    <g id="_004-percentage" data-name="004-percentage" transform="translate(625 676)">
      <g id="Group_932" data-name="Group 932">
        <circle id="Ellipse_67" data-name="Ellipse 67" class="cls-2" cx="1.321" cy="1.321" r="1.321" transform="translate(9.962 11.796)"/>
        <circle id="Ellipse_68" data-name="Ellipse 68" class="cls-2" cx="1.321" cy="1.321" r="1.321" transform="translate(18.354 17.157)"/>
        <path id="Path_402" data-name="Path 402" class="cls-2" d="M35.486,17.546l-.479-.654a2.062,2.062,0,0,1-.019-2.4l.466-.66a2.061,2.061,0,0,0-.712-3l-.712-.382a2.052,2.052,0,0,1-1.055-2.156l.136-.8a2.057,2.057,0,0,0-1.943-2.4l-.809-.032a2.064,2.064,0,0,1-1.891-1.483L28.24,2.8a2.052,2.052,0,0,0-2.791-1.315L24.7,1.8a2.052,2.052,0,0,1-2.344-.518l-.537-.6A2.053,2.053,0,0,0,18.741.71l-.531.609a2.059,2.059,0,0,1-2.338.55l-.751-.311a2.061,2.061,0,0,0-2.771,1.36l-.214.784A2.045,2.045,0,0,1,10.271,5.21l-.809.045a2.056,2.056,0,0,0-1.9,2.428l.149.8a2.053,2.053,0,0,1-1.023,2.169l-.706.395a2.055,2.055,0,0,0-.66,3.011l.479.654a2.062,2.062,0,0,1,.019,2.4l-.466.66a2.061,2.061,0,0,0,.712,3l.712.382A2.052,2.052,0,0,1,7.83,23.315l-.136.8a2.057,2.057,0,0,0,1.943,2.4l.809.032a2.064,2.064,0,0,1,1.891,1.483l.227.777a2.052,2.052,0,0,0,2.791,1.314L16.1,29.8a2.052,2.052,0,0,1,2.344.518l.537.6a2.053,2.053,0,0,0,3.082-.026l.531-.609a2.059,2.059,0,0,1,2.338-.55l.751.311a2.061,2.061,0,0,0,2.771-1.36l.214-.784a2.045,2.045,0,0,1,1.865-1.509l.809-.045a2.056,2.056,0,0,0,1.9-2.428l-.149-.8a2.053,2.053,0,0,1,1.023-2.169l.706-.395A2.053,2.053,0,0,0,35.486,17.546ZM13.01,13.116A3.186,3.186,0,1,1,16.2,16.3,3.184,3.184,0,0,1,13.01,13.116Zm3.8,8.217a.779.779,0,0,1-1.094.1h0a.779.779,0,0,1-.1-1.094l8.36-10.069a.777.777,0,0,1,1.2.991Zm7.783.33a3.186,3.186,0,1,1,3.186-3.186A3.184,3.184,0,0,1,24.594,21.664Z" transform="translate(-4.919 0)"/>
      </g>
    </g>
  </g>
</svg>
