<svg xmlns="http://www.w3.org/2000/svg" viewBox="0 0 220.877 52.445">
  <defs>
    <style>
      .cls-1, .cls-2 {
        fill: #fff;
      }

      .cls-1 {
        stroke: rgba(4,3,3,0);
        font-size: 35px;
        font-family: Poppins-SemiBold, Poppins;
        font-weight: 600;
        letter-spacing: -0.03em;
      }

      .cls-3 {
        opacity: 0.72;
      }
    </style>
  </defs>
  <g id="Group_891" data-name="Group 891" transform="translate(-1120.989 -2512.316)">
    <g id="Group_36" data-name="Group 36" transform="translate(1159.451 2513.316)">
      <text id="Pay" class="cls-1" transform="translate(0 37)"><tspan x="0" y="0">Pay</tspan></text>
      <text id="Pay-2" data-name="Pay" class="cls-1" transform="translate(64.416 38.445)"><tspan x="0" y="0">Centre</tspan></text>
    </g>
    <g id="Group_37" data-name="Group 37" transform="translate(1120.989 2516.89)">
      <path id="Subtraction_8" data-name="Subtraction 8" class="cls-2" d="M18.171,43.528h0L7.687,33.043A18.274,18.274,0,0,1,2.1,26.681,18.167,18.167,0,0,1,3.107,8.02a18.244,18.244,0,0,1,8-6.59A18.166,18.166,0,0,1,28.361,3.107a18.244,18.244,0,0,1,6.591,8,18.077,18.077,0,0,1,1.43,7.081,18.2,18.2,0,0,1-7.817,14.944L18.171,43.528Zm.094-39.519A14.255,14.255,0,1,0,32.52,18.265,14.271,14.271,0,0,0,18.265,4.009Z" transform="translate(0 0)"/>
      <g id="Group_34" data-name="Group 34" class="cls-3" transform="translate(4.331 10.796)">
        <path id="XMLID_11_" class="cls-2" d="M105.2,52c.125.225.225.449.349.649.1.1.225.175.325.275C105.649,52.624,105.425,52.3,105.2,52Z" transform="translate(-80.362 -39.019)"/>
        <path id="XMLID_9_" class="cls-2" d="M26.029,67.293A43.738,43.738,0,0,1,17.791,62.8C17.541,63.349,22.908,66.819,26.029,67.293Z" transform="translate(-14.795 -47.123)"/>
        <path id="XMLID_8_" class="cls-2" d="M8.371,41.992a26.5,26.5,0,0,0,2.122,1.623,30.011,30.011,0,0,0,4.593,2.646c.8.374,1.623.7,2.446,1s1.673.549,2.521.774,1.7.4,2.571.549c-.449-.225-.9-.449-1.323-.674-.374-.125-.724-.25-1.1-.374a25.177,25.177,0,0,1-2.4-.949c-.8-.349-1.548-.724-2.322-1.123a32.558,32.558,0,0,1-4.319-2.771c-.674-.524-1.348-1.073-2-1.623-.4-.349-.8-.724-1.173-1.1L9.22,38.747c.225-.225.424-.449.649-.649-.449-.549-.849-1.048-1.173-1.5-.275.25-.549.524-.824.774-.574.549-1.148,1.1-1.7,1.648-.15.15-.325.3-.474.474a9.234,9.234,0,0,0,.7.7C7.023,40.819,7.672,41.418,8.371,41.992Z" transform="translate(-5.7 -27.464)"/>
        <path id="XMLID_7_" class="cls-2" d="M18.672,25.242c.524.724,1.073,1.423,1.623,2.122a33.149,33.149,0,0,0,3.744,3.744,25.8,25.8,0,0,0,2.1,1.6c.724.5,1.473.974,2.222,1.4A25.9,25.9,0,0,0,30.7,35.3c-.374-.325-.749-.649-1.1-1-.325-.2-.649-.424-.974-.624-.724-.5-1.4-1-2.072-1.548a24.933,24.933,0,0,1-1.947-1.7,35.741,35.741,0,0,1-3.47-3.794q-.786-1.011-1.5-2.1c-.3-.449-.574-.9-.849-1.348.5-.275,1-.574,1.5-.874.275-.15.524-.325.8-.474-.3-.649-.549-1.248-.749-1.747-.325.175-.674.349-1,.549-.7.374-1.373.774-2.072,1.148-.2.1-.374.225-.574.325.15.3.325.574.474.849C17.674,23.745,18.148,24.493,18.672,25.242Z" transform="translate(-13.954 -15.082)"/>
        <path id="XMLID_6_" class="cls-2" d="M36.39,38.513A43.513,43.513,0,0,1,31.5,30.5c-.5.325-1,.674-1.5,1A30.028,30.028,0,0,0,36.39,38.513Z" transform="translate(-23.934 -22.886)"/>
        <path id="XMLID_5_" class="cls-2" d="M33.873,12.293c.3.849.649,1.673,1.023,2.471a30.155,30.155,0,0,0,2.671,4.593,26.114,26.114,0,0,0,1.623,2.1q.861,1.011,1.8,1.947c.624.624,1.273,1.2,1.947,1.772-.275-.4-.549-.824-.8-1.248-.25-.275-.524-.574-.774-.874a24.691,24.691,0,0,1-1.6-2.022c-.5-.7-1-1.4-1.448-2.122a32.951,32.951,0,0,1-2.371-4.568c-.325-.8-.624-1.6-.9-2.421-.175-.5-.325-1.023-.474-1.523.549-.15,1.123-.3,1.673-.449.3-.075.6-.175.9-.25-.125-.7-.2-1.348-.275-1.9-.4.05-.774.15-1.123.225-.774.175-1.523.374-2.3.574-.225.05-.424.125-.649.175.075.325.15.624.25.949A23.677,23.677,0,0,0,33.873,12.293Z" transform="translate(-26.035 -5.853)"/>
        <path id="XMLID_4_" class="cls-2" d="M60.338.225C59.54.175,58.766.15,57.967.1,57.168.075,56.394.025,55.6.025,54.822,0,54.023,0,53.249,0H52.6V.974c0,.9.05,1.8.125,2.7s.2,1.772.349,2.646a32.2,32.2,0,0,0,1.373,5.117c.3.824.649,1.648,1.023,2.446A25.65,25.65,0,0,0,56.694,16.2c.449.774.924,1.5,1.423,2.222a25.738,25.738,0,0,0,1.623,2.072c-.5-.724-.949-1.473-1.4-2.222-.424-.749-.824-1.523-1.223-2.3-.374-.774-.724-1.573-1.023-2.371-.325-.8-.6-1.623-.849-2.446a31.582,31.582,0,0,1-1.1-5.018c-.125-.849-.2-1.7-.25-2.571-.025-.524-.05-1.073-.05-1.6h1.722c.8,0,1.573-.025,2.371-.05l2.371-.075c.4-.025.8-.025,1.173-.05.175,0,.374-.025.549-.025.025.449.05.9.1,1.348.075.7.175,1.373.3,2.047a20.946,20.946,0,0,0,1.2,3.919,17.771,17.771,0,0,0,.874,1.847c.325.6.674,1.173,1.048,1.747a1.108,1.108,0,0,0,.2.275c.225.325.674.924.674.924l.125.175a1.974,1.974,0,0,1,.2.275,19.519,19.519,0,0,0,1.373,1.5c-.4-.549-.774-1.1-1.148-1.673-.349-.574-.674-1.148-1-1.722-.3-.6-.6-1.173-.849-1.8-.25-.6-.474-1.223-.7-1.847a24.969,24.969,0,0,1-.9-3.819,17.157,17.157,0,0,1-.2-1.947,17.254,17.254,0,0,1-.025-1.972c0-.225.025-.449.025-.649-.225-.025-.449-.025-.649-.05-.175,0-.349-.025-.5-.025C61.961.3,61.736.3,61.512.275,61.112.275,60.713.25,60.338.225Z" transform="translate(-40.892)"/>
        <path id="XMLID_2_" class="cls-2" d="M80.4,44.1a2.893,2.893,0,0,0-3.3-1.348c-1.173.449-1.673,2.047-1,3.62A2.73,2.73,0,0,1,75.9,46c-.874-1.722-.349-3.545.949-3.969A2.972,2.972,0,0,1,80.3,43.777.953.953,0,0,0,80.4,44.1Z" transform="translate(-58.056 -31.445)"/>
      </g>
    </g>
  </g>
</svg>
